inDegrees=yes
name=ik_lifting_orientations
DataType=double
version=3
OpenSimVersion=4.5-2024-01-10-34fd6af
endheader
time	pelvis_tilt	pelvis_list	pelvis_rotation	pelvis_tx	pelvis_ty	pelvis_tz	hip_flexion_r	hip_adduction_r	hip_rotation_r	knee_angle_r	knee_angle_r_beta	ankle_angle_r	subtalar_angle_r	mtp_angle_r	hip_flexion_l	hip_adduction_l	hip_rotation_l	knee_angle_l	knee_angle_l_beta	ankle_angle_l	subtalar_angle_l	mtp_angle_l	lumbar_extension	lumbar_bending	lumbar_rotation	arm_flex_r	arm_add_r	arm_rot_r	elbow_flex_r	pro_sup_r	wrist_flex_r	wrist_dev_r	arm_flex_l	arm_add_l	arm_rot_l	elbow_flex_l	pro_sup_l	wrist_flex_l	wrist_dev_l
1.67	2.425252907656738	1.796263782902205	-106.8018842093867	0	0.9399999998679526	0	45.98699962947912	-10.60832548827343	0	60.3451367667104	1.053221324145382	-5.210014673067604	0	0	45.98699962947912	-10.60832548827343	0	60.3451367667104	1.053221324145382	-5.210014673067604	0	0	-10.39275373979302	-4.3045425161966	49.80183021801821	90.10929928171514	-2.935444895531473	21.44731261990361	0.01340608661438029	1.601457485546885	0	0	0	-11.31066265444039	0	88.50741015578738	1.601457485546885	0	0
1.68	2.39006375941186	1.723581251028286	-107.3636091183645	0	0.9399999998679526	0	45.98655850628545	-10.60737923010679	0	60.34501538514353	1.053219205637389	-5.209588956012165	0	0	45.98655850628545	-10.60737923010679	0	60.34501538514353	1.053219205637389	-5.209588956012165	0	0	-10.61531442609832	-4.180133490986137	49.43995842007379	90.10724091788525	-1.65862444384553	22.02713377110508	0.01361597444727949	1.60095882279893	0	0	0	-11.31150955565823	0	88.50787484809777	1.60095882279893	0	0
1.69	2.392456635059468	1.709675084105853	-107.6205417908035	0	0.9399999998679526	0	45.98626797183552	-10.60675463615279	0	60.34493563291538	1.053217813698422	-5.209307895787726	0	0	45.98626797183552	-10.60675463615279	0	60.34493563291538	1.053217813698422	-5.209307895787726	0	0	-10.67061945246144	-4.196673362364028	49.55204220905142	90.11896667389516	-1.023299663449355	22.43053139013524	0.01371383653808327	1.600630670707721	0	0	0	-11.31206645357186	0	88.5081806454057	1.600630670707721	0	0
1.7	2.348640766971463	1.679224414829454	-107.6563625735855	0	0.9399999998679526	0	45.98608487517048	-10.60636012531488	0	60.34488549273337	1.053216938587158	-5.209130326120682	0	0	45.98608487517048	-10.60636012531488	0	60.34488549273337	1.053216938587158	-5.209130326120682	0	0	-10.82402120015405	-4.116787928311805	49.36484856326284	90.15065204197543	-0.9000139142835486	22.31669013013008	0.01331295170910138	1.600424044967505	0	0	0	-11.31241684640048	0	88.50837319509546	1.600424044967505	0	0
1.71	2.316947764078741	1.660851278277348	-107.5571713885128	0	0.9399999998679526	0	45.98593984446075	-10.60604838610914	0	60.34484571066975	1.053216244259165	-5.208990089899109	0	0	45.98593984446075	-10.60604838610914	0	60.34484571066975	1.053216244259165	-5.208990089899109	0	0	-10.93827270562626	-4.055935493190982	49.3075391089714	90.30949048846044	-1.073879535504517	22.08514736271416	0.0131908405457337	1.600260266228138	0	0	0	-11.3126947362264	0	88.50852581669132	1.600260266228138	0	0
1.72	2.327237280349996	1.657897394395454	-107.5673324235384	0	0.9399999998679526	0	45.98570125999843	-10.60554149691914	0	60.34477964975591	1.053215091278711	-5.208762573733005	0	0	45.98570125999843	-10.60554149691914	0	60.34477964975591	1.053215091278711	-5.208762573733005	0	0	-10.88106746091716	-4.150849769889325	49.61079353223641	90.52152571984573	-1.226912400027533	22.03419433378295	0.01336147797450942	1.599989856990673	0	0	0	-11.31315497386836	0	88.50877780496936	1.599989856990673	0	0
1.73	2.336893765032489	1.659585051690362	-107.6894701496541	0	0.9399999998679526	0	45.98553295857448	-10.60518076962922	0	60.34473340581965	1.053214284169764	-5.208600420803717	0	0	45.98553295857448	-10.60518076962922	0	60.34473340581965	1.053214284169764	-5.208600420803717	0	0	-10.83135244766679	-4.21020607901502	49.86060291022041	90.62591844249582	-1.181751835646351	22.27325710994524	0.01348043994351293	1.599799659157045	0	0	0	-11.31347788494784	0	88.5089550459343	1.599799659157045	0	0
1.74	2.357176327940747	1.654657338295924	-107.8970313884608	0	0.9399999998679526	0	45.98523460758987	-10.60453939007974	0	60.3446516643363	1.053212857511745	-5.208311989220013	0	0	45.98523460758987	-10.60453939007974	0	60.3446516643363	1.053212857511745	-5.208311989220013	0	0	-10.85190856177505	-4.300199975804088	50.20004618144606	90.79749091805974	-0.79928270822077	22.61420124472814	0.01346531971765655	1.599462847497039	0	0	0	-11.31404918776237	0	88.50926891286396	1.599462847497039	0	0
1.75	2.378329729903229	1.656690500520145	-108.0878177600677	0	0.9399999998679526	0	45.98484070609943	-10.60369862231668	0	60.34454316842498	1.053210963900867	-5.20793446324929	0	0	45.98484070609943	-10.60369862231668	0	60.34454316842498	1.053210963900867	-5.20793446324929	0	0	-10.9000357850348	-4.285860944604182	50.0885255306142	90.96053339933694	-0.07555468205591716	23.01721552743968	0.01371436605659713	1.599017225598889	0	0	0	-11.31480640527785	0	88.50968417771207	1.599017225598889	0	0
1.76	2.349045109995463	1.626474168767927	-108.4481824769656	0	0.9399999998679526	0	45.98470778230745	-10.60341572610658	0	60.34450649535616	1.053210323835069	-5.207807533942876	0	0	45.98470778230745	-10.60341572610658	0	60.34450649535616	1.053210323835069	-5.207807533942876	0	0	-10.95815598934334	-4.255097309703133	50.1619432838251	91.03265553203148	0.1566350906968464	23.09721266937577	0.0140900739583189	1.598866741542505	0	0	0	-11.31506225868599	0	88.50982441038218	1.598866741542505	0	0
1.77	2.311869777323683	1.578410269533976	-108.6560487371341	0	0.9399999998679526	0	45.9845423400091	-10.60306383882905	0	60.34446083416304	1.053209526896909	-5.207649675895566	0	0	45.9845423400091	-10.60306383882905	0	60.34446083416304	1.053209526896909	-5.207649675895566	0	0	-10.97034861331476	-4.25638471324749	50.25779249090015	91.12365177784585	0.3561057491412159	23.15982328085886	0.01429723875881587	1.598679412442721	0	0	0	-11.31538079959043	0	88.50999897811727	1.598679412442721	0	0
1.78	2.316495670506716	1.570127245866008	-108.718577612671	0	0.9399999998679526	0	45.98433374310667	-10.60261667894191	0	60.34440365061558	1.053208528855728	-5.207448807019671	0	0	45.98433374310667	-10.60261667894191	0	60.34440365061558	1.053208528855728	-5.207448807019671	0	0	-10.98601604199133	-4.280893424096718	50.30872957663247	91.21103720276643	0.3072869757043364	23.18373939880793	0.01429682926201778	1.598443823319399	0	0	0	-11.31578052568449	0	88.51021851815035	1.598443823319399	0	0
1.79	2.3520822954654	1.606322595705499	-108.7127329020798	0	0.9399999998679526	0	45.98415686078508	-10.602239056607	0	60.34435501501279	1.053207680004325	-5.207279325204958	0	0	45.98415686078508	-10.602239056607	0	60.34435501501279	1.053207680004325	-5.207279325204958	0	0	-10.93816700703874	-4.298107585342096	50.31145603156547	91.27122078342339	0.6214613392137224	23.44025972735406	0.01418874050762872	1.598243812857536	0	0	0	-11.31612022708542	0	88.51040490330455	1.598243812857536	0	0
1.8	2.346939548384822	1.591536943246907	-108.8008200488774	0	0.9399999998679526	0	45.98396089028659	-10.6018197298072	0	60.34430125116265	1.053206741648122	-5.207091067838477	0	0	45.98396089028659	-10.6018197298072	0	60.34430125116265	1.053206741648122	-5.207091067838477	0	0	-10.89151145846758	-4.375826366819469	50.63618140183086	91.35240370249295	0.6947495700348287	23.58172194125518	0.01409035248699093	1.598022398978451	0	0	0	-11.31649601331137	0	88.51061123377528	1.598022398978451	0	0
1.81	2.340689753779344	1.574934040228034	-108.9239474524821	0	0.9399999998679526	0	45.9837893322697	-10.60145294415724	0	60.34425416955329	1.053205919919021	-5.206926443603676	0	0	45.9837893322697	-10.60145294415724	0	60.34425416955329	1.053205919919021	-5.206926443603676	0	0	-10.89680935604039	-4.387201464422636	50.69971477483105	91.34453558689687	0.7040500658511141	23.61217531472829	0.01396533182111003	1.597828534754895	0	0	0	-11.31682508374785	0	88.51079189136665	1.597828534754895	0	0
1.82	2.340787095321064	1.561357202774329	-109.2413789016456	0	0.9399999998679526	0	45.98360318150603	-10.6010556170311	0	60.34420303227678	1.053205027405176	-5.20674818735491	0	0	45.98360318150603	-10.6010556170311	0	60.34420303227678	1.053205027405176	-5.20674818735491	0	0	-10.98271579849186	-4.357766312980669	50.62568558827867	91.348098840662	0.985283594336135	23.67512496230573	0.0134740243557412	1.59761809109969	0	0	0	-11.31718242008759	0	88.51098799896606	1.59761809109969	0	0
